# xmcd
#
# Track frame offsets: 
#        150
#        1370
#        5907
#        28517
#        39817
#        59617
#        100957
#        150245
#        189115
#        208682
#        229917
#        261002
#        287567
#        322527
#        344877
#        345370
#
# Disc length: 4620 seconds
#
# Revision: 1
# Processed by: cddbd v1.4PL0 Copyright (c) Steve Scherf et al.
# Submitted via: ExactAudioCopy v0.95a3
#
DISCID=cf120a10
DTITLE=Gerhard Rentzsch - Die Titanic-Legende
DYEAR=2000
DGENRE=Hörspiel
TTITLE0=Intro I
TTITLE1=Intro II
TTITLE2=Der Untergang
TTITLE3=Rätsel und Merkwürdigkeiten
TTITLE4=Faszinosum Titanic
TTITLE5="Schichttorte" Titanic - Die Passagiere
TTITLE6=Fünf Tage westwärts über den Atlantik
TTITLE7=Die Rettung der 703 Überlebenden
TTITLE8=Die Kastastrophe im Kino
TTITLE9=Zwei Badewannen für das Zwischendeck
TTITLE10=1980 - Die Titanic Story Teil 2
TTITLE11=Robert Ballard findet das Wrack
TTITLE12=Die Vermarktung des Mythos
TTITLE13=Epilog
TTITLE14=Outro I
TTITLE15=Outro II
EXTD=
EXTT0=
EXTT1=
EXTT2=
EXTT3=
EXTT4=
EXTT5=
EXTT6=
EXTT7=
EXTT8=
EXTT9=
EXTT10=
EXTT11=
EXTT12=
EXTT13=
EXTT14=
EXTT15=
PLAYORDER=
